<svg xmlns="http://www.w3.org/2000/svg" width="100" height="26" viewBox="0 0 100 26">
    <g fill="none" fill-rule="nonzero">
        <path fill="#FFF" d="M24.637 7.391h7.39v1.96h-5.154v3.165h4.47v1.96h-4.47v5.233H24.64zM36.202 11.086c1.407 0 2.367.622 2.666 1.375v-1.195h1.988v5.76c0 .687.165.965.613.965.138-.002.276-.014.413-.033v1.588c-.248.097-.629.13-.977.13-.364 0-.794-.048-1.16-.261a1.573 1.573 0 0 1-.679-.998c-.48.703-1.358 1.292-2.864 1.292-2.353 0-4.174-1.864-4.174-4.32 0-2.44 1.821-4.303 4.174-4.303zm.264 6.822c1.41 0 2.551-1.129 2.551-2.52 0-1.392-1.142-2.52-2.55-2.52s-2.47 1.08-2.47 2.52 1.062 2.52 2.47 2.52zM43.114 11.254h1.92v1.258c.39-.872 1.262-1.426 2.425-1.426.195.003.39.02.582.05v1.944a3.797 3.797 0 0 0-.808-.084c-1.345 0-2.198.873-2.198 2.266v4.447h-1.92v-8.455zM49.273 11.253h2.038v1.192c.36-.795 1.146-1.358 2.26-1.358 1.219 0 2.08.53 2.492 1.457.534-1.043 1.483-1.458 2.701-1.458 1.887 0 3.184 1.29 3.184 3.345v2.632c0 .612.102.877.584.877.098-.001.196-.012.291-.033v1.672c-.102.034-.224.13-.705.13-1.08 0-2.178-.446-2.178-2.184v-2.783c0-1.125-.69-1.82-1.65-1.82s-1.635.678-1.635 1.82v4.853h-2.039v-4.853c0-1.125-.657-1.883-1.652-1.883-.96 0-1.644.741-1.644 1.883v4.853H49.28l-.008-8.342zM68.229 10.71c1.408 0 2.368.648 2.667 1.434V7.391h1.987v9.518c0 .717.166 1.007.613 1.007.138-.003.277-.014.414-.034v1.657c-.248.101-.629.136-.977.136-.364 0-.796-.051-1.16-.273a1.645 1.645 0 0 1-.679-1.041c-.48.733-1.358 1.348-2.865 1.348-2.351 0-4.174-1.946-4.174-4.508.002-2.547 1.823-4.492 4.174-4.492zm.265 7.12c1.41 0 2.551-1.177 2.551-2.63 0-1.452-1.142-2.63-2.55-2.63-1.409 0-2.469 1.128-2.469 2.63 0 1.504 1.06 2.629 2.468 2.629v.002zM75.142 11.254h1.92v1.258c.385-.872 1.262-1.426 2.425-1.426.195.003.39.02.582.05v1.944a3.788 3.788 0 0 0-.808-.084c-1.344 0-2.198.873-2.198 2.266v4.447h-1.921v-8.455zM85.613 11.086c2.382 0 4.31 1.874 4.31 4.313 0 2.44-1.928 4.31-4.31 4.31-2.399 0-4.312-1.874-4.312-4.314 0-2.439 1.913-4.309 4.312-4.309zm0 6.866c1.38 0 2.445-1.115 2.445-2.553s-1.066-2.552-2.445-2.552c-1.398 0-2.446 1.114-2.446 2.552s1.05 2.553 2.446 2.553zM91.377 23.405V11.27h1.942v1.238c.275-.795 1.23-1.422 2.605-1.422 2.296 0 4.076 1.928 4.076 4.449 0 2.52-1.784 4.446-4.076 4.446-1.376 0-2.33-.625-2.605-1.42v4.844h-1.942zm1.796-7.872a2.616 2.616 0 0 0 .715 1.856c.47.491 1.112.76 1.776.747 1.376 0 2.41-1.117 2.41-2.605 0-1.489-1.034-2.605-2.41-2.605a2.388 2.388 0 0 0-1.777.748 2.616 2.616 0 0 0-.714 1.859zM22.077 1.945a1.056 1.056 0 0 0-1.387-.53c-.346.176-.69.358-1.028.556-.753.444-1.472.945-2.15 1.5-.32.263-.63.541-.931.832-.371-.53-.78-1.032-1.223-1.502a10.29 10.29 0 0 0-2.155-1.76A7.166 7.166 0 0 0 10.455.05a6.154 6.154 0 0 0-2.98.36 8.11 8.11 0 0 0-2.452 1.495 11.776 11.776 0 0 0-1.837 2.05 17.018 17.018 0 0 0-2.327 4.8 18.915 18.915 0 0 0-.856 5.245c-.033 1.785.211 3.617.86 5.356.33.877.767 1.708 1.301 2.474.271.387.569.755.89 1.1.326.345.676.665 1.049.957a8.906 8.906 0 0 0 2.47 1.385c.219.088.446.152.67.224.224.072.454.126.686.17a9.74 9.74 0 0 0 4.178-.045 9.284 9.284 0 0 0 4.813-2.843c.63-.7 1.161-1.487 1.578-2.336.214-.41.193-.906-.056-1.296a1.251 1.251 0 0 0-1.142-.579 1.258 1.258 0 0 0-1.052.735 7.242 7.242 0 0 1-2.787 3.068 7.02 7.02 0 0 1-3.996.938 6.823 6.823 0 0 1-4.6-2.143 8.198 8.198 0 0 1-.668-.815 8.694 8.694 0 0 1-1.005-1.9c-.515-1.365-.736-2.88-.708-4.404.025-1.541.267-3.07.719-4.541a14.53 14.53 0 0 1 1.963-4.096c.416-.599.9-1.145 1.443-1.628a5.704 5.704 0 0 1 1.71-1.067 3.764 3.764 0 0 1 1.833-.23c.649.093 1.272.32 1.832.665.608.37 1.163.823 1.651 1.344.493.522.936 1.089 1.323 1.695-3.036 3.908-3.251 10.353 1.457 10.387 4.414-.206 2.797-6.264 2.679-6.731-.144-.57-.316-1.13-.516-1.681-.196.241-1.113 1.394-1.698 2.587.243.967.755 3.3-.593 3.436-1.09.05-1.25-1.477-1.142-2.403a8.724 8.724 0 0 1 1.032-3.233c.552-.985 1.6-2.245 1.6-2.245.356-.391.737-.76 1.139-1.102a16.977 16.977 0 0 1 1.848-1.36c.287-.177.58-.345.876-.514.476-.277.665-.876.437-1.383z"/>
        <path fill="#99E1D5" d="M17.655 6.16a17.765 17.765 0 0 0-1.641 2.487c.256.682.47 1.383.64 2.098l.081.341c.6-1.321 1.541-2.599 1.742-2.867a20.062 20.062 0 0 0-.822-2.06z"/>
    </g>
</svg>
